HIERARCHY
ROOT Hips
{
	OFFSET 0.000000 0.000000 0.000000
	CHANNELS 6 Xposition Yposition Zposition Zrotation Yrotation Xrotation 
	JOINT LowerBack
	{
		OFFSET 0.000000 0.000000 0.000000
		CHANNELS 3 Zrotation Yrotation Xrotation
		JOINT Spine
		{
			OFFSET 0.028270 2.035590 -0.193380
			CHANNELS 3 Zrotation Yrotation Xrotation
			JOINT Spine1
			{
				OFFSET 0.056720 2.048850 -0.042750
				CHANNELS 3 Zrotation Yrotation Xrotation
				JOINT Neck
				{
					OFFSET 0.000000 0.000000 0.000000
					CHANNELS 3 Zrotation Yrotation Xrotation
					JOINT Neck1
					{
						OFFSET -0.054170 1.746240 0.172020
						CHANNELS 3 Zrotation Yrotation Xrotation
						JOINT Head
						{
							OFFSET 0.104070 1.761360 -0.123970
							CHANNELS 3 Zrotation Yrotation Xrotation
							End Site
							{
								OFFSET 0.000000 0.000000 0.000000
							}
						}
					}
				}
				JOINT LeftShoulder
				{
					OFFSET 0.000000 0.000000 0.000000
					CHANNELS 3 Zrotation Yrotation Xrotation
					JOINT LeftArm
					{
						OFFSET 3.362410 1.200890 -0.311210
						CHANNELS 3 Zrotation Yrotation Xrotation
						JOINT LeftForeArm
						{
							OFFSET 4.983000 -0.000000 -0.000000
							CHANNELS 3 Zrotation Yrotation Xrotation
							JOINT LeftHand
							{
								OFFSET 3.483560 -0.000000 -0.000000
								CHANNELS 3 Zrotation Yrotation Xrotation
								JOINT LeftFingerBase
								{
									OFFSET 0.000000 0.000000 0.000000
									CHANNELS 3 Zrotation Yrotation Xrotation
									JOINT LeftHandIndex1
									{
										OFFSET 0.715260 -0.000000 -0.000000
										CHANNELS 3 Zrotation Yrotation Xrotation
										End Site
										{
											OFFSET 0.000000 0.000000 0.000000
										}
									}
								}
								JOINT LThumb
								{
									OFFSET 0.000000 0.000000 0.000000
									CHANNELS 3 Zrotation Yrotation Xrotation
									End Site
									{
										OFFSET 0.000000 0.000000 0.000000
									}
								}
							}
						}
					}
				}
				JOINT RightShoulder
				{
					OFFSET 0.000000 0.000000 0.000000
					CHANNELS 3 Zrotation Yrotation Xrotation
					JOINT RightArm
					{
						OFFSET -3.136600 1.374050 -0.404650
						CHANNELS 3 Zrotation Yrotation Xrotation
						JOINT RightForeArm
						{
							OFFSET -5.241900 -0.000000 -0.000000
							CHANNELS 3 Zrotation Yrotation Xrotation
							JOINT RightHand
							{
								OFFSET -3.444170 -0.000000 -0.000000
								CHANNELS 3 Zrotation Yrotation Xrotation
								JOINT RightFingerBase
								{
									OFFSET 0.000000 0.000000 0.000000
									CHANNELS 3 Zrotation Yrotation Xrotation
									JOINT RightHandIndex1
									{
										OFFSET -0.622530 -0.000000 -0.000000
										CHANNELS 3 Zrotation Yrotation Xrotation
										End Site
										{
											OFFSET 0.000000 0.000000 0.000000
										}
									}
								}
								JOINT RThumb
								{
									OFFSET 0.000000 0.000000 0.000000
									CHANNELS 3 Zrotation Yrotation Xrotation
									End Site
									{
										OFFSET 0.000000 0.000000 0.000000
									}
								}
							}
						}
					}
				}
			}
		}
	}
}
}
MOTION
Frames: 7
Frame Time: 0.008333
4.615974 17.059754 3.437798 10.202507 34.161145 17.747522 2.877291 -6.679683 -5.277051 1.166777 -7.008559 -3.295118 -2.086131 -7.250343 3.092623 7.518172 -22.207569 -12.163770 -0.061294 0.088650 -1.158451 0.000000 0.000000 0.000000 11.265674 8.027880 2.190078 -17.162369 7.759319 -20.899344 -0.233623 -74.321114 -0.135339 14.012055 1.191471 0.082435 -0.295842 0.541447 -0.000000 0.000000 0.000000 0.000000 0.000000 0.000000 0.000000 5.588776 -20.855534 2.117913 39.371811 -21.875809 -35.942243 2.869934 31.492300 -0.002101 -2.710964 1.620128 -0.045071 0.189902 -0.176122 0.000000 0.000000 0.000000 0.000000 0.000000 0.000000 0.000000 
4.676732 17.047824 3.558603 9.794633 33.697276 17.297556 3.254092 -6.580548 -5.056831 1.206344 -6.931654 -3.256149 -2.209329 -7.168012 3.090952 7.622684 -22.223445 -12.306150 -0.123412 0.085742 -1.199681 0.000000 0.000000 0.000000 11.146508 8.280032 2.166105 -17.779378 8.238374 -21.416461 -0.230464 -75.912081 -0.127962 13.351366 0.710232 0.020362 -0.281830 0.547433 -0.000000 0.000000 0.000000 0.000000 0.000000 0.000000 0.000000 5.816324 -20.763256 2.123222 40.352093 -21.823872 -37.257683 2.757318 32.310508 -0.004299 -3.780254 2.007366 -0.075564 0.194361 -0.181792 0.000000 0.000000 0.000000 0.000000 0.000000 0.000000 0.000000 
4.731600 17.032246 3.678103 9.401862 33.229094 16.799423 3.559129 -6.477970 -4.761684 1.226520 -6.843668 -3.200161 -2.336786 -7.074295 3.086998 7.745926 -22.234052 -12.436196 -0.182587 0.082880 -1.237842 0.000000 0.000000 0.000000 11.039534 8.532016 2.131045 -18.452803 8.577163 -21.905331 -0.227005 -77.345435 -0.121566 12.777702 0.330210 -0.024323 -0.269369 0.551526 -0.000000 0.000000 0.000000 0.000000 0.000000 0.000000 0.000000 6.038548 -20.675925 2.128693 41.502951 -21.653360 -38.490484 2.650103 33.019330 -0.006849 -4.865053 2.316726 -0.110260 0.198394 -0.185858 0.000000 0.000000 0.000000 0.000000 0.000000 0.000000 0.000000 
4.780318 17.011936 3.796293 9.032548 32.751763 16.267673 3.783201 -6.373163 -4.405373 1.226355 -6.745902 -3.129300 -2.466871 -6.970654 3.083203 7.884801 -22.241517 -12.552519 -0.237125 0.080207 -1.272492 0.000000 0.000000 0.000000 10.943278 8.791096 2.085215 -19.163168 8.774363 -22.343637 -0.223890 -78.603903 -0.116396 12.312846 0.071504 -0.052121 -0.258864 0.553541 -0.000000 0.000000 0.000000 0.000000 0.000000 0.000000 0.000000 6.249520 -20.596949 2.134762 42.812110 -21.355558 -39.625500 2.549915 33.625858 -0.009577 -5.911176 2.537998 -0.145159 0.201592 -0.188415 0.000000 0.000000 0.000000 0.000000 0.000000 0.000000 0.000000 
4.822967 16.985963 3.913167 8.691853 32.261828 15.718483 3.924131 -6.266690 -4.004912 1.206194 -6.639722 -3.046738 -2.599683 -6.858478 3.081121 8.036962 -22.244557 -12.655100 -0.287146 0.077723 -1.303559 0.000000 0.000000 0.000000 10.848792 9.062694 2.030696 -19.886478 8.835130 -22.714759 -0.221578 -79.678950 -0.112538 11.968626 -0.062359 -0.064926 -0.250566 0.553427 -0.000000 0.000000 0.000000 0.000000 0.000000 0.000000 0.000000 6.450274 -20.524555 2.141347 44.258674 -20.932264 -40.645793 2.458408 34.146485 -0.012294 -6.868405 2.667511 -0.176161 0.203684 -0.189618 0.000000 0.000000 0.000000 0.000000 0.000000 0.000000 0.000000 
4.859786 16.953673 4.028704 8.387480 31.757891 15.169048 3.981850 -6.159052 -3.574799 1.166397 -6.526530 -2.955418 -2.736934 -6.739066 3.081157 8.202286 -22.238611 -12.745065 -0.334608 0.075278 -1.331300 0.000000 0.000000 0.000000 10.744552 9.349837 1.970955 -20.598106 8.769801 -23.008858 -0.220251 -80.569250 -0.109922 11.745348 -0.080855 -0.065437 -0.244543 0.551226 -0.000000 0.000000 0.000000 0.000000 0.000000 0.000000 0.000000 6.650801 -20.452328 2.147620 45.815337 -20.396335 -41.530330 2.377154 34.603402 -0.014834 -7.698253 2.708597 -0.199765 0.204567 -0.189619 0.000000 0.000000 0.000000 0.000000 0.000000 0.000000 0.000000 
4.891269 16.914745 4.142763 8.122511 31.238915 14.634773 3.962997 -6.049966 -3.129385 1.108361 -6.407322 -2.858602 -2.881963 -6.613203 3.082562 8.381878 -22.216120 -12.824426 -0.383206 0.072569 -1.356226 0.000000 0.000000 0.000000 10.615308 9.652666 1.910441 -21.274902 8.593731 -23.223301 -0.219774 -81.281508 -0.108385 11.633169 -0.003305 -0.056250 -0.240709 0.547033 -0.000000 0.000000 0.000000 0.000000 0.000000 0.000000 0.000000 6.867829 -20.369405 2.152286 47.451537 -19.767015 -42.261326 2.307442 35.021964 -0.017062 -8.374908 2.667718 -0.213768 0.204262 -0.188547 0.000000 0.000000 0.000000 0.000000 0.000000 0.000000 0.000000 
